# Blender v2.79 (sub 0) OBJ File: 'SteeringWheel.blend'
# www.blender.org
v 0.020370 0.000001 -0.020370
v -0.020370 0.000001 -0.020370
v 0.020370 0.000001 0.020370
v -0.020370 0.000001 0.020370
v 0.020370 0.539132 -0.020370
v -0.020370 0.539132 -0.020370
v 0.020370 0.539132 0.020370
v -0.020370 0.539131 0.020370
v 0.000000 0.540585 0.130040
v 0.025369 0.540585 0.127541
v 0.049764 0.540585 0.120141
v 0.072246 0.540585 0.108124
v 0.091952 0.540585 0.091952
v 0.108124 0.540585 0.072246
v 0.120141 0.540585 0.049764
v 0.127541 0.540585 0.025370
v 0.130039 0.540585 0.000000
v 0.127541 0.540585 -0.025369
v 0.120141 0.540585 -0.049764
v 0.108124 0.540585 -0.072246
v 0.091952 0.540585 -0.091951
v 0.072246 0.540585 -0.108123
v 0.049764 0.540585 -0.120140
v 0.025369 0.540585 -0.127540
v -0.000000 0.540585 -0.130039
v -0.025370 0.540585 -0.127540
v -0.049764 0.540585 -0.120140
v -0.072246 0.540585 -0.108123
v -0.091952 0.540585 -0.091951
v -0.108124 0.540585 -0.072246
v -0.120141 0.540585 -0.049763
v -0.127541 0.540585 -0.025369
v -0.130039 0.540585 0.000000
v -0.127541 0.540585 0.025370
v -0.120141 0.540585 0.049764
v -0.108124 0.540585 0.072246
v -0.091951 0.540585 0.091952
v -0.072246 0.540585 0.108124
v -0.049764 0.540585 0.120141
v -0.025369 0.540585 0.127541
v 0.020427 0.539131 0.102691
v 0.000000 0.539132 0.104703
v 0.040068 0.539131 0.096733
v 0.058170 0.539131 0.087058
v 0.074036 0.539131 0.074036
v 0.087057 0.539131 0.058170
v 0.096733 0.539131 0.040068
v 0.102691 0.539131 0.020427
v 0.104703 0.539131 0.000000
v 0.102691 0.539131 -0.020426
v 0.096733 0.539131 -0.040068
v 0.087057 0.539131 -0.058170
v 0.074036 0.539131 -0.074036
v 0.058170 0.539131 -0.087057
v 0.040068 0.539131 -0.096733
v 0.020426 0.539131 -0.102691
v -0.000000 0.539131 -0.104703
v -0.020427 0.539131 -0.102691
v -0.040068 0.539131 -0.096733
v -0.058170 0.539131 -0.087057
v -0.074036 0.539131 -0.074036
v -0.087057 0.539131 -0.058170
v -0.096733 0.539131 -0.040068
v -0.102691 0.539131 -0.020426
v -0.104703 0.539131 0.000000
v -0.102691 0.539131 0.020427
v -0.096733 0.539131 0.040069
v -0.087057 0.539131 0.058170
v -0.074036 0.539131 0.074037
v -0.058170 0.539131 0.087058
v -0.040068 0.539131 0.096733
v -0.020426 0.539132 0.102691
v 0.020427 0.570249 0.102691
v 0.000000 0.570249 0.104703
v 0.040068 0.570249 0.096733
v 0.058170 0.570249 0.087058
v 0.074036 0.570249 0.074036
v 0.087057 0.570249 0.058170
v 0.096733 0.570248 0.040068
v 0.102691 0.570248 0.020427
v 0.104703 0.570249 0.000000
v 0.102691 0.570249 -0.020426
v 0.096733 0.570249 -0.040068
v 0.087057 0.570249 -0.058170
v 0.074036 0.570249 -0.074036
v 0.058170 0.570249 -0.087057
v 0.040068 0.570249 -0.096733
v 0.020426 0.570249 -0.102691
v -0.000000 0.570249 -0.104703
v -0.020427 0.570249 -0.102691
v -0.040068 0.570249 -0.096733
v -0.058170 0.570249 -0.087057
v -0.074036 0.570249 -0.074036
v -0.087057 0.570249 -0.058170
v -0.096733 0.570249 -0.040068
v -0.102691 0.570249 -0.020426
v -0.104703 0.570249 0.000000
v -0.102691 0.570249 0.020427
v -0.096733 0.570249 0.040069
v -0.087057 0.570249 0.058170
v -0.074036 0.570249 0.074037
v -0.058170 0.570249 0.087058
v -0.040068 0.570249 0.096733
v -0.020426 0.570249 0.102691
v 0.025369 0.568795 0.127541
v 0.000000 0.568795 0.130040
v 0.049764 0.568795 0.120141
v 0.072246 0.568795 0.108124
v 0.091952 0.568795 0.091952
v 0.108124 0.568795 0.072246
v 0.120141 0.568795 0.049764
v 0.127541 0.568795 0.025370
v 0.130039 0.568795 0.000000
v 0.127541 0.568795 -0.025369
v 0.120141 0.568795 -0.049764
v 0.108124 0.568795 -0.072246
v 0.091952 0.568795 -0.091951
v 0.072246 0.568795 -0.108123
v 0.049764 0.568795 -0.120140
v 0.025369 0.568795 -0.127540
v -0.000000 0.568795 -0.130039
v -0.025370 0.568795 -0.127540
v -0.049764 0.568795 -0.120140
v -0.072246 0.568795 -0.108123
v -0.091952 0.568795 -0.091951
v -0.108124 0.568795 -0.072246
v -0.120141 0.568795 -0.049763
v -0.127541 0.568795 -0.025369
v -0.130039 0.568795 0.000000
v -0.127541 0.568795 0.025370
v -0.120141 0.568795 0.049764
v -0.108124 0.568795 0.072246
v -0.091951 0.568795 0.091952
v -0.072246 0.568795 0.108124
v -0.049764 0.568795 0.120141
v -0.025369 0.568795 0.127541
v 0.020370 0.570249 0.020370
v 0.020370 0.570249 -0.020370
v -0.020370 0.570249 -0.020370
v -0.020370 0.570249 0.020370
v 0.000000 0.570249 0.020370
v 0.000000 0.539131 0.020370
v 0.020370 0.539132 -0.000000
v -0.020370 0.539131 0.000000
v 0.020370 0.570249 -0.000000
v -0.020370 0.570249 0.000000
v 0.020398 0.570249 0.061531
v -0.020398 0.570249 0.061531
v 0.020398 0.539131 0.061531
v -0.020398 0.539131 0.061531
v 0.060005 0.539131 0.020399
v 0.060005 0.570249 0.020399
v -0.060005 0.539131 0.020399
v -0.060005 0.570249 0.020399
vn 0.0000 -1.0000 0.0000
vn 1.0000 0.0000 -0.0000
vn -1.0000 0.0000 0.0000
vn 0.0000 0.0000 1.0000
vn -0.0000 0.0000 -1.0000
vn 0.0167 -0.9983 0.0551
vn 0.9569 0.0000 0.2903
vn -0.0980 0.0000 -0.9952
vn 0.8819 0.0000 0.4714
vn 0.0980 0.0000 -0.9952
vn 0.7730 0.0000 0.6344
vn 0.2903 0.0000 -0.9569
vn 0.6344 0.0000 0.7730
vn 0.4714 0.0000 -0.8819
vn 0.4714 0.0000 0.8819
vn 0.6344 0.0000 -0.7730
vn 0.2903 0.0000 0.9569
vn 0.7730 0.0000 -0.6344
vn 0.0980 0.0000 0.9952
vn 0.8819 0.0000 -0.4714
vn -0.0980 0.0000 0.9952
vn 0.9569 0.0000 -0.2903
vn -0.2903 0.0000 0.9569
vn 0.9952 0.0000 -0.0980
vn -0.4714 0.0000 0.8819
vn 0.9952 0.0000 0.0980
vn -0.6344 0.0000 0.7730
vn -0.7730 0.0000 0.6344
vn -0.8819 0.0000 0.4714
vn -0.9569 0.0000 0.2903
vn 0.0056 0.9983 0.0573
vn 0.0167 0.9983 0.0551
vn 0.0271 0.9983 0.0508
vn 0.0365 0.9983 0.0445
vn 0.0445 0.9983 0.0365
vn 0.0508 0.9983 0.0271
vn 0.0551 0.9983 0.0167
vn 0.0573 0.9983 0.0057
vn 0.0573 0.9983 -0.0056
vn 0.0551 0.9983 -0.0167
vn 0.0508 0.9983 -0.0271
vn 0.0445 0.9983 -0.0365
vn 0.0365 0.9983 -0.0445
vn 0.0271 0.9983 -0.0508
vn 0.0167 0.9983 -0.0551
vn 0.0056 0.9983 -0.0573
vn -0.0056 0.9983 -0.0573
vn -0.0167 0.9983 -0.0551
vn -0.0271 0.9983 -0.0508
vn -0.0365 0.9983 -0.0445
vn -0.0445 0.9983 -0.0365
vn -0.0508 0.9983 -0.0271
vn -0.0551 0.9983 -0.0167
vn -0.0573 0.9983 -0.0056
vn -0.0573 0.9983 0.0056
vn -0.0551 0.9983 0.0167
vn -0.0508 0.9983 0.0271
vn -0.0445 0.9983 0.0365
vn -0.0365 0.9983 0.0445
vn -0.0271 0.9983 0.0508
vn -0.0167 0.9983 0.0551
vn -0.0056 0.9983 0.0573
vn -0.2903 0.0000 -0.9569
vn -0.9952 0.0000 -0.0980
vn -0.4714 0.0000 -0.8819
vn -0.9952 0.0000 0.0980
vn -0.6344 0.0000 -0.7730
vn -0.7730 0.0000 -0.6344
vn -0.8819 0.0000 -0.4714
vn -0.9569 0.0000 -0.2903
vn 0.0271 -0.9983 0.0508
vn 0.0365 -0.9983 0.0445
vn 0.0445 -0.9983 0.0365
vn 0.0508 -0.9983 0.0271
vn 0.0551 -0.9983 0.0167
vn 0.0573 -0.9983 0.0056
vn 0.0573 -0.9983 -0.0056
vn 0.0551 -0.9983 -0.0167
vn 0.0508 -0.9983 -0.0271
vn 0.0445 -0.9983 -0.0365
vn 0.0365 -0.9983 -0.0445
vn 0.0271 -0.9983 -0.0508
vn 0.0167 -0.9983 -0.0551
vn 0.0056 -0.9983 -0.0573
vn -0.0056 -0.9983 -0.0573
vn -0.0167 -0.9983 -0.0551
vn -0.0271 -0.9983 -0.0508
vn -0.0365 -0.9983 -0.0445
vn -0.0445 -0.9983 -0.0365
vn -0.0508 -0.9983 -0.0271
vn -0.0551 -0.9983 -0.0167
vn -0.0573 -0.9983 -0.0056
vn -0.0573 -0.9983 0.0056
vn -0.0551 -0.9983 0.0167
vn -0.0508 -0.9983 0.0271
vn -0.0445 -0.9983 0.0365
vn -0.0365 -0.9983 0.0445
vn -0.0271 -0.9983 0.0508
vn -0.0167 -0.9983 0.0551
vn -0.0056 -0.9983 0.0573
vn 0.0056 -0.9983 0.0573
vn -0.0000 1.0000 0.0000
vn 1.0000 0.0000 -0.0007
vn -1.0000 0.0000 -0.0007
vn 0.0007 0.0000 -1.0000
vn -0.0007 0.0000 -1.0000
vn 0.0007 0.0000 1.0000
vn -0.0007 0.0000 1.0000
vn 1.0000 0.0000 0.0007
vn -0.7203 0.0000 0.6936
vn 0.7203 0.0000 0.6936
vn 0.0573 0.9983 0.0056
s off
f 3//1 2//1 1//1
f 5//2 145//2 143//2
f 4//3 144//3 2//3
f 1//2 143//2 3//2
f 3//4 142//4 4//4
f 2//5 5//5 1//5
f 43//6 10//6 41//6
f 95//7 64//7 63//7
f 122//8 25//8 26//8
f 94//9 63//9 62//9
f 121//10 24//10 25//10
f 93//11 62//11 61//11
f 120//12 23//12 24//12
f 92//13 61//13 60//13
f 119//14 22//14 23//14
f 91//15 60//15 59//15
f 118//16 21//16 22//16
f 90//17 59//17 58//17
f 117//18 20//18 21//18
f 89//19 58//19 57//19
f 116//20 19//20 20//20
f 88//21 57//21 56//21
f 115//22 18//22 19//22
f 87//23 56//23 55//23
f 114//24 17//24 18//24
f 86//25 55//25 54//25
f 113//26 16//26 17//26
f 85//27 54//27 53//27
f 112//7 15//7 16//7
f 84//28 53//28 52//28
f 111//9 14//9 15//9
f 106//21 40//21 9//21
f 83//29 52//29 51//29
f 110//11 13//11 14//11
f 136//23 39//23 40//23
f 82//30 51//30 50//30
f 109//13 12//13 13//13
f 135//25 38//25 39//25
f 50//24 81//24 49//24
f 106//31 73//31 74//31
f 105//32 75//32 73//32
f 75//33 108//33 76//33
f 108//34 77//34 76//34
f 109//35 78//35 77//35
f 78//36 111//36 79//36
f 111//37 80//37 79//37
f 80//38 113//38 81//38
f 113//39 82//39 81//39
f 82//40 115//40 83//40
f 115//41 84//41 83//41
f 84//42 117//42 85//42
f 117//43 86//43 85//43
f 86//44 119//44 87//44
f 119//45 88//45 87//45
f 88//46 121//46 89//46
f 121//47 90//47 89//47
f 90//48 123//48 91//48
f 123//49 92//49 91//49
f 124//50 93//50 92//50
f 125//51 94//51 93//51
f 94//52 127//52 95//52
f 127//53 96//53 95//53
f 96//54 129//54 97//54
f 129//55 98//55 97//55
f 98//56 131//56 99//56
f 131//57 100//57 99//57
f 100//58 133//58 101//58
f 133//59 102//59 101//59
f 102//60 135//60 103//60
f 135//61 104//61 103//61
f 136//62 74//62 104//62
f 123//63 26//63 27//63
f 65//64 96//64 64//64
f 124//65 27//65 28//65
f 66//66 97//66 65//66
f 125//67 28//67 29//67
f 98//22 67//22 66//22
f 126//68 29//68 30//68
f 99//20 68//20 67//20
f 42//19 73//19 74//19
f 127//69 30//69 31//69
f 100//18 69//18 68//18
f 73//63 43//63 41//63
f 128//70 31//70 32//70
f 101//16 70//16 69//16
f 75//65 44//65 43//65
f 129//64 32//64 33//64
f 102//14 71//14 70//14
f 76//67 45//67 44//67
f 130//66 33//66 34//66
f 103//12 72//12 71//12
f 77//68 46//68 45//68
f 131//30 34//30 35//30
f 42//21 104//21 72//21
f 46//69 79//69 47//69
f 132//29 35//29 36//29
f 105//19 9//19 10//19
f 79//70 48//70 47//70
f 133//28 36//28 37//28
f 107//17 10//17 11//17
f 49//26 80//26 48//26
f 134//27 37//27 38//27
f 108//15 11//15 12//15
f 44//71 11//71 43//71
f 44//72 13//72 12//72
f 46//73 13//73 45//73
f 46//74 15//74 14//74
f 48//75 15//75 47//75
f 48//76 17//76 16//76
f 50//77 17//77 49//77
f 50//78 19//78 18//78
f 52//79 19//79 51//79
f 52//80 21//80 20//80
f 54//81 21//81 53//81
f 54//82 23//82 22//82
f 56//83 23//83 55//83
f 56//84 25//84 24//84
f 58//85 25//85 57//85
f 58//86 27//86 26//86
f 60//87 27//87 59//87
f 61//88 28//88 60//88
f 62//89 29//89 61//89
f 62//90 31//90 30//90
f 64//91 31//91 63//91
f 64//92 33//92 32//92
f 66//93 33//93 65//93
f 66//94 35//94 34//94
f 68//95 35//95 67//95
f 68//96 37//96 36//96
f 70//97 37//97 69//97
f 70//98 39//98 38//98
f 72//99 39//99 71//99
f 42//100 40//100 72//100
f 42//101 10//101 9//101
f 146//102 141//102 145//102
f 142//4 141//4 140//4
f 6//5 138//5 5//5
f 144//3 140//3 146//3
f 73//102 147//102 74//102
f 141//102 148//102 74//102
f 149//103 73//103 41//103
f 72//104 148//104 150//104
f 7//1 149//1 142//1
f 42//1 150//1 142//1
f 6//3 146//3 139//3
f 138//102 146//102 145//102
f 143//2 137//2 7//2
f 143//1 50//1 49//1
f 151//1 7//1 143//1
f 7//105 152//105 151//105
f 5//106 82//106 50//106
f 145//102 82//102 138//102
f 152//102 80//102 81//102
f 144//1 8//1 153//1
f 144//1 64//1 6//1
f 153//107 140//107 154//107
f 6//105 96//105 139//105
f 146//102 96//102 97//102
f 154//102 146//102 97//102
f 66//107 154//107 98//107
f 80//108 151//108 48//108
f 140//109 150//109 8//109
f 7//103 147//103 149//103
f 8//1 150//1 153//1
f 150//110 154//110 153//110
f 154//102 148//102 140//102
f 7//1 151//1 149//1
f 152//111 149//111 151//111
f 147//102 152//102 137//102
f 3//1 4//1 2//1
f 5//2 138//2 145//2
f 6//3 2//3 144//3
f 4//3 8//3 144//3
f 7//2 3//2 143//2
f 1//2 5//2 143//2
f 8//4 4//4 142//4
f 3//4 7//4 142//4
f 2//5 6//5 5//5
f 43//6 11//6 10//6
f 95//7 96//7 64//7
f 122//8 121//8 25//8
f 94//9 95//9 63//9
f 121//10 120//10 24//10
f 93//11 94//11 62//11
f 120//12 119//12 23//12
f 92//13 93//13 61//13
f 119//14 118//14 22//14
f 91//15 92//15 60//15
f 118//16 117//16 21//16
f 90//17 91//17 59//17
f 117//18 116//18 20//18
f 89//19 90//19 58//19
f 116//20 115//20 19//20
f 88//21 89//21 57//21
f 115//22 114//22 18//22
f 87//23 88//23 56//23
f 114//24 113//24 17//24
f 86//25 87//25 55//25
f 113//26 112//26 16//26
f 85//27 86//27 54//27
f 112//7 111//7 15//7
f 84//28 85//28 53//28
f 111//9 110//9 14//9
f 106//21 136//21 40//21
f 83//29 84//29 52//29
f 110//11 109//11 13//11
f 136//23 135//23 39//23
f 82//30 83//30 51//30
f 109//13 108//13 12//13
f 135//25 134//25 38//25
f 50//24 82//24 81//24
f 106//31 105//31 73//31
f 105//32 107//32 75//32
f 75//33 107//33 108//33
f 108//34 109//34 77//34
f 109//35 110//35 78//35
f 78//36 110//36 111//36
f 111//37 112//37 80//37
f 80//112 112//112 113//112
f 113//39 114//39 82//39
f 82//40 114//40 115//40
f 115//41 116//41 84//41
f 84//42 116//42 117//42
f 117//43 118//43 86//43
f 86//44 118//44 119//44
f 119//45 120//45 88//45
f 88//46 120//46 121//46
f 121//47 122//47 90//47
f 90//48 122//48 123//48
f 123//49 124//49 92//49
f 124//50 125//50 93//50
f 125//51 126//51 94//51
f 94//52 126//52 127//52
f 127//53 128//53 96//53
f 96//54 128//54 129//54
f 129//55 130//55 98//55
f 98//56 130//56 131//56
f 131//57 132//57 100//57
f 100//58 132//58 133//58
f 133//59 134//59 102//59
f 102//60 134//60 135//60
f 135//61 136//61 104//61
f 136//62 106//62 74//62
f 123//63 122//63 26//63
f 65//64 97//64 96//64
f 124//65 123//65 27//65
f 66//66 98//66 97//66
f 125//67 124//67 28//67
f 98//22 99//22 67//22
f 126//68 125//68 29//68
f 99//20 100//20 68//20
f 42//19 41//19 73//19
f 127//69 126//69 30//69
f 100//18 101//18 69//18
f 73//63 75//63 43//63
f 128//70 127//70 31//70
f 101//16 102//16 70//16
f 75//65 76//65 44//65
f 129//64 128//64 32//64
f 102//14 103//14 71//14
f 76//67 77//67 45//67
f 130//66 129//66 33//66
f 103//12 104//12 72//12
f 77//68 78//68 46//68
f 131//30 130//30 34//30
f 42//21 74//21 104//21
f 46//69 78//69 79//69
f 132//29 131//29 35//29
f 105//19 106//19 9//19
f 79//70 80//70 48//70
f 133//28 132//28 36//28
f 107//17 105//17 10//17
f 49//26 81//26 80//26
f 134//27 133//27 37//27
f 108//15 107//15 11//15
f 44//71 12//71 11//71
f 44//72 45//72 13//72
f 46//73 14//73 13//73
f 46//74 47//74 15//74
f 48//75 16//75 15//75
f 48//76 49//76 17//76
f 50//77 18//77 17//77
f 50//78 51//78 19//78
f 52//79 20//79 19//79
f 52//80 53//80 21//80
f 54//81 22//81 21//81
f 54//82 55//82 23//82
f 56//83 24//83 23//83
f 56//84 57//84 25//84
f 58//85 26//85 25//85
f 58//86 59//86 27//86
f 60//87 28//87 27//87
f 61//88 29//88 28//88
f 62//89 30//89 29//89
f 62//90 63//90 31//90
f 64//91 32//91 31//91
f 64//92 65//92 33//92
f 66//93 34//93 33//93
f 66//94 67//94 35//94
f 68//95 36//95 35//95
f 68//96 69//96 37//96
f 70//97 38//97 37//97
f 70//98 71//98 39//98
f 72//99 40//99 39//99
f 42//100 9//100 40//100
f 42//101 41//101 10//101
f 137//102 145//102 141//102
f 146//102 140//102 141//102
f 140//4 8//4 142//4
f 142//4 7//4 137//4
f 137//4 141//4 142//4
f 6//5 139//5 138//5
f 144//3 8//3 140//3
f 141//102 74//102 147//102
f 147//102 137//102 141//102
f 104//102 74//102 148//102
f 141//102 140//102 148//102
f 149//103 147//103 73//103
f 72//104 104//104 148//104
f 42//1 142//1 149//1
f 149//1 41//1 42//1
f 8//1 142//1 150//1
f 42//1 72//1 150//1
f 6//3 144//3 146//3
f 138//102 139//102 146//102
f 143//2 145//2 137//2
f 143//1 5//1 50//1
f 143//1 49//1 151//1
f 48//1 151//1 49//1
f 7//105 137//105 152//105
f 5//106 138//106 82//106
f 145//102 81//102 82//102
f 81//102 145//102 152//102
f 137//102 152//102 145//102
f 153//1 66//1 65//1
f 65//1 144//1 153//1
f 144//1 65//1 64//1
f 153//107 8//107 140//107
f 6//105 64//105 96//105
f 146//102 139//102 96//102
f 97//102 98//102 154//102
f 154//102 140//102 146//102
f 66//107 153//107 154//107
f 80//108 152//108 151//108
f 140//109 148//109 150//109
f 7//103 137//103 147//103
f 150//110 148//110 154//110
f 152//111 147//111 149//111
